<?xml version="1.0" encoding="UTF-8"?>
<svg xmlns="http://www.w3.org/2000/svg" xmlns:xlink="http://www.w3.org/1999/xlink" width="31px" height="26px" viewBox="0 0 31 26" version="1.1">
<g id="surface1">
<path style=" stroke:none;fill-rule:evenodd;fill:rgb(79.607843%,69.803922%,57.254902%);fill-opacity:1;" d="M 27.3125 10.878906 L 15.839844 1.304688 C 15.824219 1.292969 15.808594 1.285156 15.789062 1.277344 C 15.761719 1.257812 15.730469 1.242188 15.695312 1.226562 C 15.664062 1.214844 15.632812 1.203125 15.601562 1.199219 C 15.535156 1.183594 15.464844 1.183594 15.398438 1.199219 C 15.367188 1.203125 15.335938 1.214844 15.304688 1.226562 C 15.269531 1.242188 15.238281 1.257812 15.210938 1.277344 C 15.191406 1.285156 15.175781 1.292969 15.160156 1.304688 L 3.480469 11.050781 C 3.304688 11.195312 3.238281 11.4375 3.316406 11.652344 C 3.390625 11.867188 3.59375 12.011719 3.820312 12.011719 C 3.941406 12.011719 4.0625 11.96875 4.160156 11.886719 L 15.5 2.425781 L 26.636719 11.714844 C 26.863281 11.890625 27.1875 11.851562 27.367188 11.625 C 27.550781 11.402344 27.523438 11.074219 27.3125 10.878906 Z M 27.3125 10.878906 "/>
<path style=" stroke:none;fill-rule:evenodd;fill:rgb(100%,32.54902%,39.215686%);fill-opacity:1;" d="M 1.070312 9.75 L 29.929688 9.75 C 30.519531 9.75 31 10.234375 31 10.832031 L 31 24.917969 C 31 25.515625 30.519531 26 29.929688 26 L 1.070312 26 C 0.480469 26 0 25.515625 0 24.917969 L 0 10.832031 C 0 10.234375 0.480469 9.75 1.070312 9.75 Z M 1.070312 9.75 "/>
<path style=" stroke:none;fill-rule:evenodd;fill:rgb(94.117647%,76.862745%,9.803922%);fill-opacity:1;" d="M 17.636719 2.167969 C 17.636719 3.363281 16.679688 4.332031 15.5 4.332031 C 14.320312 4.332031 13.363281 3.363281 13.363281 2.167969 C 13.363281 0.96875 14.320312 0 15.5 0 C 16.679688 0 17.636719 0.96875 17.636719 2.167969 Z M 17.636719 2.167969 "/>
<path style=" stroke:none;fill-rule:nonzero;fill:rgb(100%,100%,100%);fill-opacity:1;" d="M 12.828125 14.082031 L 12.292969 14.082031 C 11.113281 14.082031 10.15625 15.054688 10.15625 16.25 L 10.15625 19.5 C 10.15625 20.695312 11.113281 21.667969 12.292969 21.667969 L 12.828125 21.667969 C 14.007812 21.667969 14.964844 20.695312 14.964844 19.5 L 14.964844 16.25 C 14.964844 15.054688 14.007812 14.082031 12.828125 14.082031 Z M 13.898438 19.5 C 13.898438 20.097656 13.417969 20.582031 12.828125 20.582031 L 12.292969 20.582031 C 11.703125 20.582031 11.222656 20.097656 11.222656 19.5 L 11.222656 16.25 C 11.222656 15.652344 11.703125 15.167969 12.292969 15.167969 L 12.828125 15.167969 C 13.417969 15.167969 13.898438 15.652344 13.898438 16.25 Z M 13.898438 19.5 "/>
<path style=" stroke:none;fill-rule:nonzero;fill:rgb(100%,100%,100%);fill-opacity:1;" d="M 27.257812 14.082031 L 25.121094 14.082031 C 24.824219 14.082031 24.585938 14.324219 24.585938 14.625 L 24.585938 21.125 C 24.585938 21.425781 24.824219 21.667969 25.121094 21.667969 L 27.257812 21.667969 C 28.4375 21.667969 29.398438 20.695312 29.398438 19.5 L 29.398438 16.25 C 29.398438 15.054688 28.4375 14.082031 27.257812 14.082031 Z M 28.328125 19.5 C 28.328125 20.097656 27.847656 20.582031 27.257812 20.582031 L 25.65625 20.582031 L 25.65625 15.167969 L 27.257812 15.167969 C 27.847656 15.167969 28.328125 15.652344 28.328125 16.25 Z M 28.328125 19.5 "/>
<path style=" stroke:none;fill-rule:evenodd;fill:rgb(100%,100%,100%);fill-opacity:1;" d="M 9.621094 20.582031 L 8.015625 20.582031 L 8.015625 14.625 C 8.015625 14.324219 7.777344 14.082031 7.484375 14.082031 C 7.1875 14.082031 6.949219 14.324219 6.949219 14.625 L 6.949219 21.125 C 6.949219 21.425781 7.1875 21.667969 7.484375 21.667969 L 9.621094 21.667969 C 9.914062 21.667969 10.15625 21.425781 10.15625 21.125 C 10.15625 20.824219 9.914062 20.582031 9.621094 20.582031 Z M 9.621094 20.582031 "/>
<path style=" stroke:none;fill-rule:evenodd;fill:rgb(100%,100%,100%);fill-opacity:1;" d="M 17.636719 15.167969 C 18.226562 15.167969 18.707031 15.652344 18.707031 16.25 C 18.707031 16.550781 18.945312 16.792969 19.242188 16.792969 C 19.535156 16.792969 19.777344 16.550781 19.777344 16.25 C 19.777344 15.054688 18.820312 14.082031 17.636719 14.082031 C 16.457031 14.082031 15.5 15.054688 15.5 16.25 C 15.5 17.445312 16.457031 18.417969 17.636719 18.417969 C 18.226562 18.417969 18.707031 18.902344 18.707031 19.5 C 18.707031 20.097656 18.226562 20.582031 17.636719 20.582031 C 17.046875 20.582031 16.570312 20.097656 16.570312 19.5 C 16.570312 19.199219 16.328125 18.957031 16.035156 18.957031 C 15.738281 18.957031 15.5 19.199219 15.5 19.5 C 15.5 20.695312 16.457031 21.667969 17.636719 21.667969 C 18.820312 21.667969 19.777344 20.695312 19.777344 19.5 C 19.777344 18.304688 18.820312 17.332031 17.636719 17.332031 C 17.046875 17.332031 16.570312 16.847656 16.570312 16.25 C 16.570312 15.652344 17.046875 15.167969 17.636719 15.167969 Z M 17.636719 15.167969 "/>
<path style=" stroke:none;fill-rule:evenodd;fill:rgb(100%,100%,100%);fill-opacity:1;" d="M 3.742188 15.167969 L 4.277344 15.167969 C 4.867188 15.167969 5.34375 15.652344 5.34375 16.25 C 5.34375 16.550781 5.585938 16.792969 5.878906 16.792969 C 6.175781 16.792969 6.414062 16.550781 6.414062 16.25 C 6.414062 15.054688 5.457031 14.082031 4.277344 14.082031 L 3.742188 14.082031 C 2.5625 14.082031 1.601562 15.054688 1.601562 16.25 L 1.601562 19.5 C 1.601562 20.695312 2.5625 21.667969 3.742188 21.667969 L 4.277344 21.667969 C 5.457031 21.667969 6.414062 20.695312 6.414062 19.5 C 6.414062 19.199219 6.175781 18.957031 5.878906 18.957031 C 5.585938 18.957031 5.34375 19.199219 5.34375 19.5 C 5.34375 20.097656 4.867188 20.582031 4.277344 20.582031 L 3.742188 20.582031 C 3.152344 20.582031 2.671875 20.097656 2.671875 19.5 L 2.671875 16.25 C 2.671875 15.652344 3.152344 15.167969 3.742188 15.167969 Z M 3.742188 15.167969 "/>
<path style=" stroke:none;fill-rule:evenodd;fill:rgb(100%,100%,100%);fill-opacity:1;" d="M 23.515625 15.167969 C 23.8125 15.167969 24.050781 14.925781 24.050781 14.625 C 24.050781 14.324219 23.8125 14.082031 23.515625 14.082031 L 20.84375 14.082031 C 20.550781 14.082031 20.308594 14.324219 20.308594 14.625 L 20.308594 21.125 C 20.308594 21.425781 20.550781 21.667969 20.84375 21.667969 L 23.515625 21.667969 C 23.8125 21.667969 24.050781 21.425781 24.050781 21.125 C 24.050781 20.824219 23.8125 20.582031 23.515625 20.582031 L 21.378906 20.582031 L 21.378906 18.417969 L 22.984375 18.417969 C 23.277344 18.417969 23.515625 18.175781 23.515625 17.875 C 23.515625 17.574219 23.277344 17.332031 22.984375 17.332031 L 21.378906 17.332031 L 21.378906 15.167969 Z M 23.515625 15.167969 "/>
</g>
</svg>
