<?xml version="1.0" standalone="no"?>
<!DOCTYPE svg PUBLIC "-//W3C//DTD SVG 20010904//EN"
 "http://www.w3.org/TR/2001/REC-SVG-20010904/DTD/svg10.dtd">
<svg version="1.0" xmlns="http://www.w3.org/2000/svg"
 width="512.000000pt" height="512.000000pt" viewBox="0 0 512.000000 512.000000"
 preserveAspectRatio="xMidYMid meet">

<g transform="translate(0.000000,512.000000) scale(0.100000,-0.100000)"
fill="#000000" stroke="none">
<path d="M2445 5030 c-85 -12 -166 -40 -260 -88 -71 -37 -109 -65 -181 -137
-131 -130 -198 -256 -229 -430 -19 -110 -19 -160 0 -270 54 -310 289 -561 600
-641 95 -24 275 -24 370 0 292 75 516 299 591 591 24 95 24 275 0 370 -104
404 -488 664 -891 605z m274 -145 c165 -39 346 -181 424 -332 103 -197 102
-430 0 -626 -51 -98 -172 -219 -270 -270 -197 -103 -429 -103 -626 0 -107 56
-221 173 -275 283 -61 124 -75 191 -70 330 4 93 10 129 33 190 77 209 257 375
462 424 78 19 243 19 322 1z"/>
<path d="M2626 4320 l-181 -179 -66 64 c-73 71 -103 81 -139 45 -40 -40 -28
-66 78 -172 79 -79 104 -98 127 -98 25 0 62 33 242 213 227 227 238 242 193
287 -43 43 -62 32 -254 -160z"/>
<path d="M995 3626 c-16 -8 -42 -26 -56 -42 -30 -33 -842 -1133 -871 -1179
-23 -38 -24 -115 -2 -161 22 -47 402 -350 458 -365 55 -15 112 -2 153 34 33
29 36 30 61 15 15 -9 37 -31 50 -48 20 -30 22 -45 22 -154 l0 -121 -71 -90
c-101 -128 -121 -172 -127 -270 -3 -66 0 -91 19 -140 28 -75 102 -155 178
-192 48 -24 68 -28 142 -28 l87 0 6 -49 c12 -105 94 -214 191 -257 61 -27 158
-34 217 -16 l47 15 7 -32 c18 -87 92 -173 185 -215 53 -25 172 -28 222 -7 l33
13 18 -50 c23 -65 94 -139 165 -174 46 -23 69 -28 131 -27 96 0 171 34 232
104 l43 49 55 -27 c73 -36 190 -38 261 -3 109 52 176 146 186 259 l6 59 61 7
c157 16 264 126 274 282 l4 71 55 6 c159 17 287 158 288 318 l0 67 58 5 c78 7
156 47 211 108 53 59 76 121 76 205 l0 63 33 6 c17 3 75 11 127 18 92 12 96
11 140 -11 32 -17 56 -22 85 -19 49 5 516 211 556 245 41 34 59 73 59 127 0
68 -585 1513 -632 1562 -38 39 -87 57 -137 50 -41 -5 -526 -220 -555 -245 -27
-25 -56 -91 -56 -133 0 -33 -4 -37 -67 -73 -120 -66 -94 -67 -598 8 -247 36
-473 66 -500 66 -115 0 -236 -51 -325 -136 l-57 -54 -248 0 -248 0 -33 25
c-31 24 -33 28 -27 74 10 91 -11 118 -233 292 -107 85 -207 159 -222 166 -36
16 -100 15 -137 -1z m261 -257 c98 -77 184 -148 191 -157 10 -14 10 -22 0 -40
-7 -12 -201 -279 -432 -592 -343 -465 -424 -569 -443 -570 -16 0 -87 50 -209
146 -151 120 -184 151 -181 168 4 21 840 1164 862 1178 6 4 16 8 22 8 6 0 91
-63 190 -141z m3092 119 c24 -30 593 -1458 588 -1475 -6 -20 -455 -223 -493
-223 -12 0 -26 8 -32 18 -5 9 -125 303 -266 652 -141 349 -272 672 -291 718
-26 61 -32 87 -25 100 11 19 454 221 487 221 12 1 26 -5 32 -11z m-1357 -424
c529 -79 536 -79 663 -11 86 46 87 46 96 24 26 -59 508 -1252 507 -1254 -1 0
-54 -9 -117 -18 -184 -27 -310 -9 -423 62 -21 13 -229 176 -461 362 -292 234
-438 344 -472 357 -34 13 -74 19 -134 19 -83 0 -88 -1 -205 -57 -143 -68 -199
-82 -314 -76 -151 8 -251 60 -251 130 0 34 15 51 273 297 86 83 175 162 197
176 42 27 126 53 171 54 15 1 227 -29 470 -65z m-1444 -86 l45 -33 199 -3
c109 -2 199 -5 199 -8 0 -2 -45 -48 -101 -101 -134 -129 -160 -182 -138 -286
34 -160 312 -255 569 -195 25 6 95 34 156 63 220 104 185 119 706 -299 230
-183 440 -348 468 -366 56 -36 163 -76 230 -86 52 -8 60 -16 60 -66 0 -68 -39
-131 -102 -164 -30 -16 -114 -19 -150 -5 -13 5 -169 117 -348 250 -353 262
-361 266 -403 209 -36 -48 -19 -66 276 -283 149 -110 289 -216 311 -235 48
-43 66 -84 66 -150 0 -130 -123 -224 -247 -191 -25 7 -146 87 -327 216 -296
211 -319 224 -358 188 -21 -19 -24 -62 -5 -85 6 -9 125 -96 262 -194 138 -98
264 -192 282 -209 103 -102 30 -275 -115 -275 -23 0 -51 4 -64 9 -13 5 -140
100 -283 211 -143 111 -270 207 -283 213 -32 15 -76 -19 -80 -62 -4 -38 -20
-23 267 -248 118 -92 223 -180 235 -195 28 -39 34 -133 11 -182 -36 -74 -127
-116 -209 -95 -65 16 -69 26 -44 90 49 127 11 277 -93 359 -61 48 -107 64
-185 64 l-62 1 -5 52 c-14 137 -132 249 -273 261 l-61 5 -5 61 c-10 124 -78
225 -186 278 -56 28 -77 33 -138 33 l-72 0 -6 50 c-10 85 -35 142 -89 201 -69
75 -131 106 -229 112 -95 6 -165 -15 -237 -69 l-51 -39 0 48 c0 69 -40 144
-101 190 l-48 36 37 50 c20 28 113 155 207 281 94 127 236 319 315 427 80 109
147 198 148 198 2 0 24 -15 49 -32z m-276 -1230 c53 -17 87 -45 116 -95 32
-56 36 -139 8 -193 -27 -54 -281 -376 -318 -404 -136 -104 -331 -5 -332 169 0
76 12 96 187 319 103 132 143 175 177 193 49 25 109 30 162 11z m439 -378 c88
-45 127 -135 100 -231 -11 -40 -283 -385 -329 -418 -95 -68 -235 -30 -291 79
-20 38 -16 120 8 165 28 54 280 374 313 398 53 39 130 41 199 7z m346 -369
c48 -22 80 -59 96 -114 18 -59 -3 -104 -123 -266 -113 -152 -148 -181 -225
-181 -58 0 -129 48 -154 103 -23 51 -25 86 -5 132 14 35 190 258 238 303 46
43 110 52 173 23z m375 -317 c34 -17 77 -68 85 -100 15 -60 -2 -121 -56 -206
-68 -106 -88 -127 -127 -144 -104 -45 -228 16 -251 124 -9 42 -3 96 14 123 28
46 140 183 160 196 50 32 119 35 175 7z"/>
</g>
</svg>
