<?xml version="1.0" standalone="no"?>
<!DOCTYPE svg PUBLIC "-//W3C//DTD SVG 20010904//EN"
 "http://www.w3.org/TR/2001/REC-SVG-20010904/DTD/svg10.dtd">
<svg version="1.0" xmlns="http://www.w3.org/2000/svg"
 width="512.000000pt" height="512.000000pt" viewBox="0 0 512.000000 512.000000"
 preserveAspectRatio="xMidYMid meet">

<g transform="translate(0.000000,512.000000) scale(0.100000,-0.100000)"
fill="#000000" stroke="none">
<path d="M2315 5109 c-800 -83 -1501 -518 -1927 -1196 -604 -961 -490 -2237
274 -3068 425 -462 951 -737 1583 -827 119 -17 512 -16 635 1 622 86 1148 360
1572 820 349 378 572 862 650 1406 17 118 17 512 0 630 -59 416 -191 769 -410
1099 -92 140 -185 254 -315 385 -399 404 -893 653 -1462 737 -123 18 -478 26
-600 13z m1595 -1256 c48 -28 62 -81 36 -131 -8 -15 -132 -144 -275 -287
l-261 -260 0 -412 0 -411 -25 -30 c-32 -39 -74 -48 -114 -27 -17 8 -115 69
-219 135 -126 80 -192 128 -200 145 -8 18 -12 114 -12 313 l0 287 -101 100
c-55 55 -177 180 -270 277 -155 162 -169 180 -169 213 0 20 5 45 11 56 25 48
25 48 822 49 681 0 751 -2 777 -17z m-1839 -653 c132 -25 242 -112 302 -238
29 -61 32 -75 32 -168 0 -96 -2 -103 -38 -176 -152 -309 -582 -309 -734 0 -36
73 -38 80 -38 177 0 97 2 104 38 177 83 169 260 261 438 228z m144 -1035 c150
-41 284 -124 396 -243 140 -150 212 -313 226 -513 6 -85 5 -86 -25 -120 l-30
-34 -782 0 -782 0 -30 34 c-31 34 -31 35 -25 120 15 199 85 362 221 508 131
141 291 230 473 263 71 13 288 4 358 -15z"/>
<path d="M2640 3662 c0 -4 84 -90 186 -192 102 -102 192 -197 200 -212 11 -22
14 -83 14 -307 l0 -279 79 -51 c44 -28 82 -51 85 -51 3 0 7 155 8 345 l3 345
205 205 205 205 -493 0 c-270 0 -492 -3 -492 -8z"/>
<path d="M1937 2997 c-87 -27 -146 -108 -147 -200 -1 -208 264 -291 384 -120
81 116 18 288 -119 322 -53 13 -69 13 -118 -2z"/>
<path d="M1847 1974 c-167 -40 -329 -167 -409 -320 -34 -64 -68 -161 -68 -191
0 -11 115 -13 630 -13 719 0 646 -12 609 100 -33 100 -77 169 -163 255 -90 90
-183 143 -296 169 -80 19 -225 19 -303 0z"/>
</g>
</svg>
