<?xml version="1.0" standalone="no"?>
<!DOCTYPE svg PUBLIC "-//W3C//DTD SVG 20010904//EN"
 "http://www.w3.org/TR/2001/REC-SVG-20010904/DTD/svg10.dtd">
<svg version="1.0" xmlns="http://www.w3.org/2000/svg"
 width="512.000000pt" height="512.000000pt" viewBox="0 0 512.000000 512.000000"
 preserveAspectRatio="xMidYMid meet">

<g transform="translate(0.000000,512.000000) scale(0.100000,-0.100000)"
fill="#000000" stroke="none">
<path d="M905 4889 c-275 -35 -531 -182 -695 -400 -77 -103 -143 -239 -177
-365 -23 -86 -26 -119 -27 -254 0 -130 3 -169 22 -242 50 -191 125 -328 256
-465 140 -147 303 -245 483 -290 38 -10 70 -19 72 -20 3 -2 -49 -58 -115 -126
-136 -138 -171 -181 -207 -252 -107 -214 -95 -459 34 -678 35 -60 124 -155
523 -555 l481 -483 -3 -57 c-6 -108 53 -214 150 -267 44 -25 65 -30 129 -31
73 -2 79 -3 128 -42 28 -22 67 -46 86 -52 19 -6 66 -27 103 -47 62 -32 72 -35
142 -31 89 4 141 26 217 94 l53 46 52 -46 c76 -67 129 -90 217 -94 67 -4 79
-2 145 31 39 19 91 44 116 56 25 11 62 35 83 52 34 28 45 32 110 33 168 4 279
115 283 284 l2 74 474 476 c284 286 489 500 512 535 137 212 158 466 56 685
-39 84 -70 123 -214 269 -66 68 -118 124 -115 126 2 1 34 10 72 20 301 75 576
318 691 610 57 145 69 210 69 382 1 142 -2 171 -26 259 -144 536 -671 863
-1210 750 -37 -8 -107 -29 -155 -47 -598 -226 -844 -947 -511 -1495 22 -36 38
-66 37 -67 -2 -1 -157 -50 -345 -109 l-343 -108 -342 108 c-189 59 -344 108
-346 109 -1 1 16 32 38 70 48 79 93 185 122 293 17 63 21 106 21 237 0 140 -3
172 -26 256 -96 363 -371 642 -728 738 -138 38 -260 47 -394 30z m303 -155
c84 -17 201 -64 290 -116 86 -50 248 -218 299 -308 236 -421 104 -942 -303
-1196 -191 -119 -443 -160 -663 -109 -402 95 -683 448 -682 859 0 257 90 469
274 642 124 116 271 196 422 228 94 19 267 20 363 0z m3107 -9 c324 -89 586
-372 645 -695 18 -101 14 -266 -10 -367 -42 -177 -157 -362 -297 -478 -83 -69
-241 -148 -347 -175 -231 -58 -482 -19 -683 106 -347 216 -501 642 -372 1028
47 143 100 227 214 341 136 136 269 211 445 250 85 19 320 13 405 -10z m-2267
-1666 c141 -45 259 -83 261 -85 1 -1 -70 -26 -158 -54 -197 -63 -195 -60 -182
-186 5 -49 19 -115 31 -146 30 -80 104 -159 187 -200 58 -28 78 -33 162 -36
l96 -4 508 -506 c290 -289 515 -521 523 -539 8 -18 14 -53 14 -79 0 -41 -5
-51 -39 -85 -35 -35 -44 -39 -90 -39 -29 0 -62 5 -74 11 -12 6 -210 198 -439
427 l-418 417 -52 -53 -53 -52 537 -538 c295 -295 541 -547 547 -559 6 -12 11
-45 11 -74 0 -46 -4 -55 -39 -90 -35 -35 -44 -39 -90 -39 -29 0 -62 5 -74 11
-12 6 -264 252 -559 547 l-538 537 -52 -53 -53 -52 472 -472 c407 -409 473
-479 484 -515 32 -111 -67 -208 -178 -173 -30 10 -136 110 -511 483 l-472 472
-52 -53 -53 -52 287 -287 c241 -243 288 -294 297 -328 28 -107 -66 -202 -173
-174 -36 9 -129 99 -733 702 -648 649 -693 696 -727 764 -85 170 -88 340 -10
502 21 43 71 100 213 244 l185 187 50 0 c187 1 462 114 608 250 29 27 61 49
71 50 10 0 134 -37 275 -81z m1369 31 c151 -138 423 -249 609 -250 l50 0 186
-187 c156 -158 190 -198 215 -253 75 -159 70 -330 -14 -494 -33 -64 -83 -118
-504 -541 l-468 -470 -30 29 -31 29 58 32 c136 75 186 233 120 375 -18 39
-125 153 -482 515 l-458 465 36 40 c43 48 47 86 11 120 l-24 23 -175 -17
c-159 -16 -179 -16 -228 -2 -91 26 -158 107 -171 206 l-6 45 602 191 c331 106
613 192 626 193 15 1 42 -16 78 -49z m-982 -2630 c-10 -11 -20 -18 -22 -16 -2
2 2 15 8 30 8 18 16 23 22 17 7 -7 4 -17 -8 -31z"/>
<path d="M972 4488 c-98 -15 -179 -76 -230 -173 -22 -42 -26 -63 -26 -135 0
-72 4 -93 26 -135 51 -97 131 -158 230 -173 145 -22 275 46 339 176 34 67 34
197 0 264 -63 130 -194 197 -339 176z m152 -172 c47 -35 70 -80 70 -136 0 -56
-23 -101 -71 -137 -31 -24 -46 -28 -98 -28 -52 0 -67 4 -98 28 -48 36 -69 79
-69 137 0 71 30 118 97 155 45 24 124 15 169 -19z"/>
<path d="M743 3909 c-96 -17 -168 -74 -212 -168 -25 -55 -26 -61 -26 -258 0
-181 2 -204 18 -220 17 -17 50 -18 503 -18 l486 0 20 25 c19 23 19 36 16 225
-3 188 -5 203 -28 250 -54 110 -156 173 -273 166 -10 -1 -36 -19 -58 -42 -49
-50 -99 -72 -164 -72 -65 0 -113 21 -161 70 -45 46 -63 52 -121 42z m61 -183
c71 -54 128 -71 231 -70 102 0 155 19 219 75 37 32 37 32 72 16 63 -30 74 -63
74 -219 l0 -138 -375 0 -375 0 0 131 c0 148 12 188 64 220 17 10 34 19 38 19
4 0 28 -15 52 -34z"/>
<path d="M4032 4488 c-98 -15 -187 -81 -233 -176 -34 -67 -34 -197 0 -264 27
-57 90 -122 142 -149 79 -40 209 -40 287 0 51 26 109 87 140 146 22 42 26 63
26 135 0 72 -4 93 -26 135 -31 59 -89 120 -140 146 -49 25 -132 36 -196 27z
m152 -172 c47 -35 67 -76 68 -135 0 -88 -61 -159 -146 -168 -87 -10 -163 42
-186 127 -20 74 24 164 95 196 47 22 127 13 169 -20z"/>
<path d="M3799 3909 c-88 -13 -165 -74 -209 -164 -23 -47 -25 -62 -28 -250 -3
-189 -3 -202 16 -225 l20 -25 486 0 c453 0 486 1 503 18 16 16 18 39 18 220 0
186 -2 206 -22 250 -52 113 -143 177 -253 179 -36 0 -47 -5 -81 -41 -55 -57
-93 -74 -164 -75 -48 -1 -69 4 -106 26 -25 15 -53 38 -62 51 -21 32 -62 45
-118 36z m66 -183 c24 -19 70 -44 102 -56 114 -43 271 -13 356 68 l28 27 36
-20 c61 -34 73 -70 73 -222 l0 -133 -375 0 -375 0 0 135 c0 152 9 182 63 215
18 11 35 20 39 20 4 0 28 -15 53 -34z"/>
</g>
</svg>
