<?xml version="1.0" standalone="no"?>
<!DOCTYPE svg PUBLIC "-//W3C//DTD SVG 20010904//EN"
 "http://www.w3.org/TR/2001/REC-SVG-20010904/DTD/svg10.dtd">
<svg version="1.0" xmlns="http://www.w3.org/2000/svg"
 width="64.000000pt" height="64.000000pt" viewBox="0 0 64.000000 64.000000"
 preserveAspectRatio="xMidYMid meet">

<g transform="translate(0.000000,64.000000) scale(0.100000,-0.100000)"
fill="#000000" stroke="none">
<path d="M180 505 l0 -55 -50 0 -50 0 0 -185 0 -185 190 0 190 0 0 55 0 55 50
0 50 0 0 185 0 185 -190 0 -190 0 0 -55z m120 -25 c0 -39 -1 -40 -35 -40 -34
0 -35 1 -35 40 0 39 1 40 35 40 34 0 35 -1 35 -40z m110 0 c0 -39 -1 -40 -35
-40 -34 0 -35 1 -35 40 0 39 1 40 35 40 34 0 35 -1 35 -40z m110 0 c0 -39 -1
-40 -35 -40 -34 0 -35 1 -35 40 0 39 1 40 35 40 34 0 35 -1 35 -40z m-332
-107 c-3 -35 -6 -38 -35 -41 -32 -3 -33 -2 -33 37 0 40 1 41 36 41 35 0 35 -1
32 -37z m112 -3 c0 -39 -1 -40 -35 -40 -34 0 -35 1 -35 40 0 39 1 40 35 40 34
0 35 -1 35 -40z m110 0 c0 -39 -1 -40 -35 -40 -34 0 -35 1 -35 40 0 39 1 40
35 40 34 0 35 -1 35 -40z m110 -1 c0 -39 -1 -40 -32 -37 -30 3 -33 6 -36 41
-3 36 -3 37 32 37 35 0 36 -1 36 -41z m-330 -109 c0 -39 -1 -40 -35 -40 -34 0
-35 1 -35 40 0 39 1 40 35 40 34 0 35 -1 35 -40z m110 0 c0 -39 -1 -40 -35
-40 -34 0 -35 1 -35 40 0 39 1 40 35 40 34 0 35 -1 35 -40z m110 0 c0 -39 -1
-40 -35 -40 -34 0 -35 1 -35 40 0 39 1 40 35 40 34 0 35 -1 35 -40z m110 5 c0
-33 -2 -35 -35 -35 -33 0 -35 2 -35 35 0 33 2 35 35 35 33 0 35 -2 35 -35z
m-330 -110 c0 -33 -2 -35 -35 -35 -33 0 -35 2 -35 35 0 33 2 35 35 35 33 0 35
-2 35 -35z m110 0 c0 -33 -2 -35 -35 -35 -33 0 -35 2 -35 35 0 33 2 35 35 35
33 0 35 -2 35 -35z m110 0 c0 -33 -2 -35 -35 -35 -33 0 -35 2 -35 35 0 33 2
35 35 35 33 0 35 -2 35 -35z"/>
</g>
</svg>
