<?xml version="1.0" standalone="no"?>
<!DOCTYPE svg PUBLIC "-//W3C//DTD SVG 20010904//EN"
 "http://www.w3.org/TR/2001/REC-SVG-20010904/DTD/svg10.dtd">
<svg version="1.0" xmlns="http://www.w3.org/2000/svg"
 width="450.000000pt" height="450.000000pt" viewBox="0 0 450.000000 450.000000"
 preserveAspectRatio="xMidYMid meet">

<g transform="translate(0.000000,450.000000) scale(0.100000,-0.100000)"
fill="#000000" stroke="none">
<path d="M1162 3638 c-23 -23 -11 -53 45 -110 l57 -58 -57 -58 c-64 -64 -72
-95 -32 -114 24 -11 30 -8 83 45 32 31 61 57 66 57 4 0 28 -22 52 -49 25 -28
54 -53 65 -56 23 -8 59 19 59 42 0 8 -25 41 -56 74 l-57 59 57 60 c60 65 65
79 40 104 -26 26 -46 19 -107 -41 l-58 -58 -54 58 c-55 57 -80 68 -103 45z"/>
<path d="M2192 3638 c-24 -24 -12 -54 43 -108 l54 -54 -54 -62 c-58 -65 -68
-97 -36 -114 28 -15 27 -15 92 47 l59 56 59 -56 c65 -62 82 -68 105 -36 19 28
12 45 -47 106 l-50 51 57 67 c53 63 56 69 43 89 -25 37 -46 31 -108 -30 l-59
-58 -58 57 c-58 58 -78 67 -100 45z"/>
<path d="M3880 3081 c-18 -35 -12 -70 14 -82 13 -6 29 -22 35 -35 7 -16 19
-24 36 -24 23 0 25 -2 15 -21 -14 -25 -6 -36 15 -19 8 7 22 9 31 6 13 -5 15
-15 11 -51 -4 -25 -3 -45 1 -45 11 0 57 50 71 77 11 22 13 21 76 -40 36 -34
65 -65 65 -69 0 -7 -113 -27 -175 -31 l-40 -2 -12 -80 c-15 -94 -9 -165 19
-255 16 -50 22 -102 25 -230 l5 -166 -26 -12 c-36 -16 -79 -15 -122 3 -31 13
-35 18 -30 37 13 42 18 282 8 338 -36 196 -36 185 -18 272 9 46 16 88 16 94 0
7 -25 14 -57 17 -53 5 -94 12 -100 17 -2 2 -7 4 -13 5 -5 1 -12 4 -15 5 -3 1
-10 3 -17 4 -32 3 -11 28 66 75 47 29 87 60 90 68 3 8 -1 27 -9 44 l-15 29
-130 -65 c-149 -75 -177 -96 -186 -140 -10 -57 20 -92 115 -135 119 -54 126
-63 124 -158 -1 -42 -4 -102 -7 -132 -5 -56 -8 -79 -27 -254 -10 -94 -9 -99
11 -121 l22 -23 -7 -589 c-4 -323 -10 -593 -13 -599 -13 -22 -82 -62 -119 -69
-42 -8 -63 -21 -63 -41 0 -28 132 -40 188 -17 20 8 38 10 45 5 7 -5 34 -7 60
-4 48 4 49 4 44 36 -3 17 -9 51 -12 75 l-7 43 -49 -4 c-27 -3 -49 -4 -49 -2 0
1 24 10 53 19 28 10 55 20 59 24 4 3 26 202 48 441 41 449 49 524 55 518 1 -1
31 -221 66 -487 l63 -483 69 5 c37 2 70 7 73 10 5 5 -12 894 -20 1050 -2 50 0
67 10 67 23 0 24 17 8 92 -20 94 -28 145 -38 233 -3 28 -10 88 -16 135 -9 67
-8 94 2 125 14 41 15 42 121 90 37 16 67 35 67 42 0 7 5 13 10 13 6 0 9 3 8 8
0 4 2 15 6 24 16 36 -13 88 -70 124 -29 19 -58 34 -64 34 -5 0 -10 5 -10 10 0
6 -6 10 -14 10 -8 0 -16 4 -18 9 -1 4 -25 22 -53 39 -44 27 -51 29 -59 15 -7
-13 -13 -8 -30 28 -18 37 -27 45 -56 50 -19 3 -49 13 -67 22 -43 23 -80 22
-93 -2z"/>
<path d="M1703 3045 c-63 -17 -118 -45 -195 -96 -66 -45 -88 -72 -81 -100 10
-38 48 -34 115 14 119 84 189 109 303 108 43 0 92 -8 127 -20 56 -19 189 -98
202 -120 10 -16 51 -13 66 4 7 8 10 25 6 37 -11 43 -165 139 -275 172 -67 20
-196 20 -268 1z"/>
<path d="M4145 813 c-11 -3 -31 -17 -45 -30 -30 -31 -64 -48 -110 -58 -60 -12
-82 -47 -39 -60 41 -13 133 -12 167 2 20 8 38 10 45 5 7 -5 34 -7 60 -4 l48 4
-6 42 c-18 114 -13 106 -59 105 -22 -1 -50 -4 -61 -6z"/>
</g>
</svg>
