<?xml version="1.0" standalone="no"?>
<!DOCTYPE svg PUBLIC "-//W3C//DTD SVG 20010904//EN"
 "http://www.w3.org/TR/2001/REC-SVG-20010904/DTD/svg10.dtd">
<svg version="1.0" xmlns="http://www.w3.org/2000/svg"
 width="512.000000pt" height="512.000000pt" viewBox="0 0 512.000000 512.000000"
 preserveAspectRatio="xMidYMid meet">

<g transform="translate(0.000000,512.000000) scale(0.100000,-0.100000)"
fill="#000000" stroke="none">
<path d="M2245 4725 c-308 -57 -583 -263 -725 -545 -118 -234 -141 -506 -63
-755 30 -97 98 -231 154 -304 22 -29 39 -54 37 -55 -2 -2 -47 -17 -102 -35
-54 -18 -160 -59 -235 -91 -75 -32 -145 -60 -156 -64 -12 -3 -85 13 -170 38
l-150 43 -5 69 c-8 98 -34 141 -109 179 -59 30 -625 225 -653 225 -31 0 -68
-41 -68 -75 0 -48 29 -62 340 -171 168 -58 313 -110 323 -115 16 -9 17 -37 17
-373 0 -341 1 -365 19 -387 13 -17 29 -23 56 -23 27 0 43 6 56 23 17 21 19 43
19 258 0 218 1 234 18 229 212 -63 276 -77 315 -71 23 4 114 38 202 75 171 72
253 101 353 124 l64 15 60 -45 c33 -24 93 -60 133 -80 l73 -36 -72 -57 c-124
-99 -140 -149 -85 -258 64 -127 179 -215 318 -244 82 -17 221 -6 317 25 44 14
118 49 165 77 46 29 104 63 128 76 87 46 206 23 311 -60 128 -101 730 -658
736 -681 13 -52 -55 -116 -123 -116 -55 1 -113 40 -284 194 -96 86 -184 159
-197 163 -48 12 -99 -42 -86 -92 3 -12 60 -72 127 -133 67 -60 134 -121 150
-135 40 -38 37 -86 -8 -132 -28 -28 -44 -35 -73 -35 -34 0 -52 14 -202 150
-91 82 -175 153 -188 156 -51 14 -101 -37 -88 -89 3 -15 63 -77 147 -153 77
-70 145 -136 150 -146 22 -41 -34 -111 -101 -124 -48 -10 -76 3 -143 66 -83
77 -110 91 -148 78 -34 -12 -49 -35 -49 -74 0 -20 17 -42 70 -91 38 -36 72
-74 75 -84 4 -10 -1 -34 -10 -54 -35 -72 -134 -100 -178 -49 -65 74 -109 113
-141 124 -36 11 -36 13 -29 48 30 142 -42 286 -173 344 -24 10 -44 20 -44 21
0 1 9 26 20 55 63 165 -33 342 -210 388 -69 17 -120 13 -189 -17 -24 -10 -47
-19 -50 -19 -4 0 -13 17 -20 37 -21 56 -97 126 -167 153 -46 17 -73 21 -122
17 -107 -8 -148 -36 -325 -223 -87 -91 -166 -181 -174 -200 l-16 -34 -119 63
-118 62 0 130 c-1 86 -5 135 -13 146 -20 26 -55 40 -82 33 -54 -14 -55 -18
-55 -407 0 -296 -2 -359 -14 -363 -8 -3 -143 40 -302 96 -260 91 -291 100
-316 89 -52 -21 -63 -72 -25 -113 20 -22 290 -124 565 -213 88 -28 130 -21
179 29 54 56 63 91 63 253 0 80 3 145 8 145 4 -1 54 -26 111 -58 96 -53 105
-60 121 -102 38 -99 140 -176 245 -187 l53 -6 7 -45 c21 -139 128 -242 270
-258 54 -7 55 -7 55 -39 0 -61 31 -128 85 -181 54 -54 112 -80 195 -88 42 -3
45 -6 52 -40 35 -169 220 -264 373 -192 76 35 274 242 305 319 l24 57 46 0
c55 0 151 44 192 87 31 34 68 101 68 125 0 14 9 18 43 18 92 0 219 90 247 176
11 31 15 34 54 34 82 0 183 70 224 157 16 33 18 34 52 26 142 -33 269 21 338
144 5 9 24 4 67 -18 46 -22 80 -31 143 -36 l82 -6 0 -92 c0 -82 3 -99 28 -146
34 -66 88 -102 143 -96 44 6 605 299 637 333 37 42 26 92 -27 114 -35 14 0 30
-383 -172 -125 -66 -232 -117 -238 -113 -6 4 -10 123 -10 336 l0 330 -25 24
c-31 32 -69 32 -100 0 -25 -24 -25 -27 -25 -196 l0 -172 -63 5 c-34 3 -80 14
-102 26 -39 19 -157 109 -179 136 -20 24 -648 590 -710 640 -34 27 -95 65
-136 85 -71 34 -80 36 -180 36 -96 0 -110 -2 -160 -29 -30 -16 -73 -41 -95
-56 -123 -84 -252 -125 -376 -118 -118 7 -211 64 -259 158 l-20 39 107 80 106
79 156 -5 c124 -5 173 -2 241 11 159 33 270 80 404 174 l80 55 123 5 c115 4
130 3 209 -23 50 -16 137 -58 212 -102 282 -165 331 -183 514 -183 l128 0 0
-184 c0 -170 1 -185 21 -210 27 -34 77 -36 107 -3 22 23 22 28 22 359 0 256 3
338 13 346 6 5 152 83 322 172 171 89 318 171 328 182 23 27 22 59 -4 92 -13
17 -30 26 -49 26 -25 0 -610 -299 -693 -354 -49 -33 -67 -83 -67 -186 l0 -90
-120 0 c-147 0 -187 12 -350 107 -263 154 -355 192 -487 202 l-83 6 31 45
c181 268 220 627 100 935 -97 253 -323 479 -576 576 -168 65 -386 86 -560 54z
m410 -160 c94 -26 254 -108 327 -169 134 -111 242 -274 288 -436 31 -107 38
-289 16 -401 -70 -344 -338 -614 -683 -685 -95 -20 -306 -14 -398 11 -166 45
-357 173 -462 310 -394 513 -113 1250 528 1385 67 14 314 5 384 -15z m-989
-2621 c68 -32 100 -116 72 -184 -19 -45 -298 -333 -338 -350 -38 -16 -105 -7
-139 17 -56 41 -76 125 -45 185 21 40 279 308 319 330 38 22 88 22 131 2z
m476 -172 c35 -20 68 -81 68 -123 -1 -19 -9 -48 -18 -66 -9 -17 -113 -131
-230 -252 -224 -232 -248 -250 -318 -236 -47 8 -101 58 -115 106 -23 74 -9 95
225 340 240 251 256 264 326 253 19 -3 47 -13 62 -22z m183 -451 c63 -35 88
-139 49 -198 -24 -38 -273 -294 -306 -316 -34 -23 -105 -24 -147 -2 -67 34
-93 135 -51 202 11 18 84 98 162 179 111 113 151 147 178 154 42 9 74 4 115
-19z m190 -385 c40 -17 65 -60 65 -115 0 -47 -36 -96 -158 -213 -76 -75 -82
-78 -127 -78 -40 0 -52 5 -81 34 -29 29 -34 41 -34 80 0 44 4 51 90 146 91 99
128 132 171 149 32 13 35 13 74 -3z"/>
<path d="M2087 4052 c-10 -10 -17 -35 -17 -54 0 -33 11 -45 126 -154 l127
-119 -127 -120 c-115 -111 -126 -125 -126 -157 0 -51 47 -86 93 -69 12 5 78
61 145 125 l123 117 127 -119 c70 -66 137 -122 148 -126 48 -15 105 44 89 93
-3 11 -62 73 -130 137 l-124 117 130 126 c138 134 145 148 108 195 -15 19 -30
26 -56 26 -37 0 -33 3 -240 -194 l-52 -49 -128 122 c-115 109 -132 121 -164
121 -22 0 -42 -7 -52 -18z"/>
</g>
</svg>
