<?xml version="1.0" standalone="no"?>
<!DOCTYPE svg PUBLIC "-//W3C//DTD SVG 20010904//EN"
 "http://www.w3.org/TR/2001/REC-SVG-20010904/DTD/svg10.dtd">
<svg version="1.0" xmlns="http://www.w3.org/2000/svg"
 width="512.000000pt" height="512.000000pt" viewBox="0 0 512.000000 512.000000"
 preserveAspectRatio="xMidYMid meet">

<g transform="translate(0.000000,512.000000) scale(0.100000,-0.100000)"
fill="#000000" stroke="none">
<path d="M0 4070 l0 -750 300 0 300 0 0 750 0 750 -300 0 -300 0 0 -750z"/>
<path d="M900 4071 l0 -451 405 0 c263 0 422 -4 457 -11 86 -19 158 -59 223
-124 99 -98 135 -198 135 -375 l0 -100 451 0 451 0 -4 313 c-4 276 -7 321 -25
387 -57 206 -148 367 -286 504 -135 134 -291 223 -487 277 -84 23 -92 23 -702
27 l-618 3 0 -450z"/>
<path d="M1810 2560 l0 -150 750 0 750 0 0 150 0 150 -750 0 -750 0 0 -150z"/>
<path d="M2122 1798 c5 -343 9 -367 77 -543 94 -243 333 -482 576 -576 195
-76 163 -73 838 -77 l607 -3 0 450 0 451 -395 0 c-256 0 -413 4 -447 11 -86
19 -158 59 -223 124 -99 98 -135 198 -135 375 l0 100 -451 0 -451 0 4 -312z"/>
<path d="M4520 1050 l0 -750 300 0 300 0 0 750 0 750 -300 0 -300 0 0 -750z"/>
</g>
</svg>
