<?xml version="1.0" encoding="UTF-8"?>
<svg xmlns="http://www.w3.org/2000/svg" xmlns:xlink="http://www.w3.org/1999/xlink" width="28px" height="28px" viewBox="0 0 28 28" version="1.1">
<g id="surface1">
<path style=" stroke:none;fill-rule:evenodd;fill:rgb(7.843137%,63.921569%,9.803922%);fill-opacity:1;" d="M 9.652344 21.332031 L 9.652344 19.289062 C 9.652344 18.945312 9.929688 18.667969 10.273438 18.667969 L 11.058594 18.667969 C 11.730469 17.949219 12.105469 17 12.105469 16.015625 C 12.105469 15.347656 11.941406 14.707031 11.617188 14.117188 C 9.046875 13.234375 7.117188 10.960938 6.757812 8.179688 C 4.792969 7.902344 3.289062 6.21875 3.289062 4.1875 L 3.289062 2.519531 C 3.289062 1.585938 4.058594 0.816406 4.988281 0.816406 L 6.707031 0.816406 L 6.707031 0.636719 C 6.707031 0.277344 6.984375 0 7.328125 0 L 20.597656 0 C 20.941406 0 21.21875 0.277344 21.21875 0.636719 L 21.21875 0.816406 L 22.9375 0.816406 C 23.871094 0.816406 24.640625 1.585938 24.640625 2.535156 L 24.640625 4.1875 C 24.640625 6.21875 23.117188 7.902344 21.152344 8.179688 C 20.808594 10.960938 18.878906 13.234375 16.3125 14.117188 C 15.984375 14.691406 15.804688 15.347656 15.804688 16.015625 C 15.804688 17 16.195312 17.949219 16.867188 18.667969 L 17.636719 18.667969 C 17.980469 18.667969 18.257812 18.945312 18.257812 19.289062 L 18.257812 21.332031 L 19.679688 21.332031 C 20.023438 21.332031 20.304688 21.613281 20.304688 21.957031 L 20.304688 24 L 21.792969 24 C 22.136719 24 22.414062 24.277344 22.414062 24.621094 L 22.414062 27.289062 C 22.414062 27.632812 22.136719 27.910156 21.792969 27.910156 L 6.136719 27.910156 C 5.792969 27.910156 5.511719 27.632812 5.511719 27.289062 L 5.511719 24.621094 C 5.511719 24.277344 5.792969 24 6.136719 24 L 7.625 24 L 7.625 21.957031 C 7.625 21.613281 7.902344 21.332031 8.246094 21.332031 Z M 12.15625 12.988281 C 12.1875 12.988281 12.222656 13.007812 12.238281 13.023438 C 12.792969 13.171875 13.367188 13.269531 13.957031 13.269531 C 14.5625 13.269531 15.132812 13.171875 15.691406 13.007812 C 15.707031 13.007812 15.738281 12.988281 15.753906 12.988281 C 18.191406 12.222656 19.960938 9.945312 19.960938 7.265625 L 19.960938 1.257812 L 7.949219 1.257812 L 7.949219 7.265625 C 7.949219 9.945312 9.71875 12.222656 12.15625 12.988281 Z M 13.121094 14.460938 C 13.285156 14.96875 13.367188 15.492188 13.367188 16.015625 C 13.367188 16.964844 13.105469 17.867188 12.613281 18.667969 L 15.296875 18.667969 C 14.824219 17.867188 14.5625 16.964844 14.5625 16.015625 C 14.5625 15.492188 14.640625 14.96875 14.804688 14.460938 C 14.527344 14.496094 14.25 14.511719 13.957031 14.511719 C 13.675781 14.511719 13.398438 14.496094 13.121094 14.460938 Z M 21.21875 2.078125 L 21.21875 6.902344 C 22.460938 6.625 23.378906 5.511719 23.378906 4.1875 L 23.378906 2.519531 C 23.378906 2.273438 23.183594 2.078125 22.9375 2.078125 Z M 4.988281 2.078125 C 4.746094 2.078125 4.53125 2.273438 4.53125 2.519531 L 4.53125 4.1875 C 4.53125 5.511719 5.464844 6.625 6.707031 6.902344 L 6.707031 2.078125 Z M 16.261719 11.058594 C 16.164062 11.058594 16.050781 11.027344 15.96875 10.976562 L 13.957031 9.882812 L 11.960938 10.976562 C 11.746094 11.09375 11.484375 11.074219 11.289062 10.945312 C 11.09375 10.796875 10.996094 10.550781 11.042969 10.308594 L 11.46875 8.066406 L 9.800781 6.511719 C 9.636719 6.347656 9.570312 6.085938 9.636719 5.855469 C 9.71875 5.628906 9.914062 5.464844 10.160156 5.433594 L 12.417969 5.136719 L 13.398438 3.074219 C 13.496094 2.863281 13.726562 2.714844 13.957031 2.714844 C 14.199219 2.714844 14.429688 2.863281 14.527344 3.074219 L 15.492188 5.136719 L 17.765625 5.433594 C 18.011719 5.464844 18.210938 5.628906 18.273438 5.855469 C 18.355469 6.085938 18.289062 6.332031 18.109375 6.511719 L 16.441406 8.066406 L 16.882812 10.308594 C 16.917969 10.550781 16.835938 10.796875 16.636719 10.945312 C 16.523438 11.011719 16.394531 11.058594 16.261719 11.058594 Z M 13.957031 8.539062 C 14.070312 8.539062 14.167969 8.554688 14.265625 8.621094 L 15.394531 9.242188 L 15.148438 7.96875 C 15.117188 7.753906 15.183594 7.542969 15.347656 7.394531 L 16.296875 6.511719 L 15.003906 6.347656 C 14.789062 6.316406 14.609375 6.183594 14.511719 5.988281 L 13.957031 4.808594 L 13.414062 5.988281 C 13.316406 6.183594 13.136719 6.316406 12.925781 6.347656 L 11.632812 6.511719 L 12.582031 7.394531 C 12.726562 7.542969 12.808594 7.753906 12.761719 7.96875 L 12.515625 9.242188 L 13.660156 8.621094 C 13.757812 8.554688 13.855469 8.539062 13.957031 8.539062 Z M 19.679688 25.242188 L 6.757812 25.242188 L 6.757812 26.667969 L 21.152344 26.667969 L 21.152344 25.242188 Z M 8.867188 24 L 19.058594 24 L 19.058594 22.578125 L 8.867188 22.578125 Z M 10.914062 21.332031 L 17.015625 21.332031 L 17.015625 19.910156 L 10.914062 19.910156 Z M 10.914062 21.332031 "/>
<path style=" stroke:none;fill-rule:evenodd;fill:rgb(5.490196%,92.156863%,8.235294%);fill-opacity:1;" d="M 12.515625 9.242188 L 13.660156 8.621094 C 13.757812 8.554688 13.855469 8.539062 13.957031 8.539062 C 14.070312 8.539062 14.167969 8.554688 14.265625 8.621094 L 15.394531 9.242188 L 15.148438 7.96875 C 15.117188 7.753906 15.183594 7.542969 15.347656 7.394531 L 16.296875 6.511719 L 15.003906 6.347656 C 14.789062 6.316406 14.609375 6.183594 14.511719 5.988281 L 13.957031 4.808594 L 13.414062 5.988281 C 13.316406 6.183594 13.136719 6.316406 12.925781 6.347656 L 11.632812 6.511719 L 12.582031 7.394531 C 12.726562 7.542969 12.808594 7.753906 12.761719 7.96875 Z M 12.515625 9.242188 "/>
<path style=" stroke:none;fill-rule:evenodd;fill:rgb(7.843137%,78.823529%,10.196078%);fill-opacity:1;" d="M 15.492188 5.136719 L 17.765625 5.433594 C 18.011719 5.464844 18.210938 5.628906 18.273438 5.855469 C 18.355469 6.085938 18.289062 6.332031 18.109375 6.511719 L 16.441406 8.066406 L 16.882812 10.308594 C 16.917969 10.550781 16.835938 10.796875 16.636719 10.945312 C 16.523438 11.011719 16.394531 11.058594 16.261719 11.058594 C 16.164062 11.058594 16.050781 11.027344 15.96875 10.976562 L 13.957031 9.882812 L 11.960938 10.976562 C 11.746094 11.09375 11.484375 11.074219 11.289062 10.945312 C 11.09375 10.796875 10.996094 10.550781 11.042969 10.308594 L 11.46875 8.066406 L 9.800781 6.511719 C 9.636719 6.347656 9.570312 6.085938 9.636719 5.855469 C 9.71875 5.628906 9.914062 5.464844 10.160156 5.433594 L 12.417969 5.136719 L 13.398438 3.074219 C 13.496094 2.863281 13.726562 2.714844 13.957031 2.714844 C 14.199219 2.714844 14.429688 2.863281 14.527344 3.074219 Z M 12.238281 13.023438 C 12.792969 13.171875 13.367188 13.269531 13.957031 13.269531 C 14.5625 13.269531 15.132812 13.171875 15.691406 13.007812 C 15.707031 13.007812 15.738281 12.988281 15.753906 12.988281 C 18.191406 12.222656 19.960938 9.945312 19.960938 7.265625 L 19.960938 1.257812 L 7.949219 1.257812 L 7.949219 7.265625 C 7.949219 9.945312 9.71875 12.222656 12.15625 12.988281 C 12.1875 12.988281 12.222656 13.007812 12.238281 13.023438 Z M 12.238281 13.023438 "/>
<path style=" stroke:none;fill-rule:evenodd;fill:rgb(16.470588%,74.117647%,18.039216%);fill-opacity:1;" d="M 21.21875 2.078125 L 21.21875 6.902344 C 22.460938 6.625 23.378906 5.511719 23.378906 4.1875 L 23.378906 2.519531 C 23.378906 2.273438 23.183594 2.078125 22.9375 2.078125 Z M 21.21875 2.078125 "/>
<path style=" stroke:none;fill-rule:evenodd;fill:rgb(7.45098%,76.862745%,9.803922%);fill-opacity:1;" d="M 6.707031 6.902344 L 6.707031 2.078125 L 4.988281 2.078125 C 4.746094 2.078125 4.53125 2.273438 4.53125 2.519531 L 4.53125 4.1875 C 4.53125 5.511719 5.464844 6.625 6.707031 6.902344 Z M 6.707031 6.902344 "/>
<path style=" stroke:none;fill-rule:evenodd;fill:rgb(5.882353%,76.078431%,8.235294%);fill-opacity:1;" d="M 13.367188 16.015625 C 13.367188 16.964844 13.105469 17.867188 12.613281 18.667969 L 15.296875 18.667969 C 14.824219 17.867188 14.5625 16.964844 14.5625 16.015625 C 14.5625 15.492188 14.640625 14.96875 14.804688 14.460938 C 14.527344 14.496094 14.25 14.511719 13.957031 14.511719 C 13.675781 14.511719 13.398438 14.496094 13.121094 14.460938 C 13.285156 14.96875 13.367188 15.492188 13.367188 16.015625 Z M 13.367188 16.015625 "/>
<path style=" stroke:none;fill-rule:evenodd;fill:rgb(15.294118%,72.941176%,17.254902%);fill-opacity:1;" d="M 17.015625 19.910156 L 10.914062 19.910156 L 10.914062 21.332031 L 17.015625 21.332031 Z M 17.015625 19.910156 "/>
<path style=" stroke:none;fill-rule:evenodd;fill:rgb(15.294118%,72.156863%,17.254902%);fill-opacity:1;" d="M 19.058594 22.578125 L 8.867188 22.578125 L 8.867188 24 L 19.058594 24 Z M 19.058594 22.578125 "/>
<path style=" stroke:none;fill-rule:evenodd;fill:rgb(15.686275%,72.156863%,17.647059%);fill-opacity:1;" d="M 19.679688 25.242188 L 6.757812 25.242188 L 6.757812 26.667969 L 21.152344 26.667969 L 21.152344 25.242188 Z M 19.679688 25.242188 "/>
</g>
</svg>
