<?xml version="1.0" standalone="no"?>
<!DOCTYPE svg PUBLIC "-//W3C//DTD SVG 20010904//EN"
 "http://www.w3.org/TR/2001/REC-SVG-20010904/DTD/svg10.dtd">
<svg version="1.0" xmlns="http://www.w3.org/2000/svg"
 width="512.000000pt" height="512.000000pt" viewBox="0 0 512.000000 512.000000"
 preserveAspectRatio="xMidYMid meet">

<g transform="translate(0.000000,512.000000) scale(0.100000,-0.100000)"
fill="#000000" stroke="none">
<path d="M2449 5099 c-368 -39 -690 -267 -849 -602 -246 -518 -38 -1140 470
-1401 47 -24 102 -49 123 -56 l37 -12 0 -294 0 -294 -164 0 c-150 0 -165 -2
-190 -21 -20 -15 -26 -29 -26 -57 0 -34 29 -73 326 -437 195 -239 337 -406
355 -414 25 -13 33 -13 58 0 18 8 158 172 355 414 297 364 326 403 326 437 0
28 -6 42 -26 57 -25 19 -40 21 -190 21 l-164 0 0 294 0 294 38 12 c20 7 75 32
122 56 505 260 715 876 475 1391 -162 347 -480 572 -867 613 -103 11 -101 11
-209 -1z"/>
<path d="M670 3309 c-55 -24 -105 -71 -131 -121 -28 -54 -302 -1500 -295
-1556 3 -23 14 -59 25 -80 10 -20 150 -192 310 -381 l291 -343 0 -69 0 -69
-44 0 c-101 0 -102 -1 -110 -355 -7 -286 -7 -290 14 -313 l21 -22 569 0 569 0
14 28 c11 20 16 100 21 312 7 279 7 287 -14 312 -16 21 -33 28 -75 33 l-54 7
-3 362 c-3 326 -5 365 -21 398 -26 51 -699 778 -748 807 -26 15 -39 30 -39 45
0 11 16 192 36 402 35 370 36 383 20 439 -43 144 -219 226 -356 164z"/>
<path d="M4251 3313 c-68 -24 -136 -98 -157 -168 -16 -56 -15 -69 20 -439 20
-209 36 -391 36 -402 0 -15 -13 -30 -39 -45 -49 -29 -723 -758 -748 -808 -16
-32 -18 -74 -21 -397 l-3 -361 -52 -6 c-39 -5 -58 -13 -75 -33 l-23 -26 7
-282 c5 -196 11 -291 20 -313 l13 -33 570 0 570 0 21 23 c21 22 21 26 14 312
-8 354 -9 355 -110 355 l-44 0 0 69 0 69 287 339 c158 186 297 356 310 379 13
22 26 61 29 85 7 57 -266 1500 -295 1557 -60 117 -201 170 -330 125z"/>
</g>
</svg>
