<?xml version="1.0" standalone="no"?>
<!DOCTYPE svg PUBLIC "-//W3C//DTD SVG 20010904//EN"
 "http://www.w3.org/TR/2001/REC-SVG-20010904/DTD/svg10.dtd">
<svg version="1.0" xmlns="http://www.w3.org/2000/svg"
 width="512.000000pt" height="512.000000pt" viewBox="0 0 512.000000 512.000000"
 preserveAspectRatio="xMidYMid meet">

<g transform="translate(0.000000,512.000000) scale(0.100000,-0.100000)"
fill="#000000" stroke="none">
<path d="M3789 5091 c-17 -13 -23 -29 -23 -56 0 -46 25 -69 92 -83 26 -6 73
-15 106 -22 32 -7 54 -15 50 -20 -11 -10 -1310 -759 -1327 -765 -7 -3 -23 21
-41 61 -100 222 -322 439 -555 540 -589 255 -1270 -49 -1477 -660 -73 -215
-73 -474 1 -696 68 -205 208 -398 384 -531 174 -130 438 -219 653 -219 l48 0
0 -194 c0 -200 7 -249 40 -266 11 -6 130 -10 283 -10 263 0 264 0 285 23 22
23 22 28 22 349 l0 326 95 95 95 95 0 -402 c0 -415 3 -456 40 -476 11 -6 130
-10 284 -10 253 0 267 1 286 20 20 20 20 33 20 674 l0 655 -26 20 c-25 19 -40
21 -203 21 l-177 0 1 153 c0 83 -3 179 -8 212 l-7 60 682 392 c376 216 684
389 686 385 1 -4 -11 -48 -28 -97 -36 -108 -37 -129 -5 -160 29 -30 74 -33
104 -7 23 19 161 415 161 462 0 53 -31 67 -249 110 -231 45 -260 47 -292 21z
m-2029 -421 c211 -26 383 -107 539 -255 124 -117 206 -252 258 -422 24 -80 27
-102 27 -253 0 -151 -3 -172 -28 -254 -101 -333 -354 -577 -682 -658 -125 -31
-313 -31 -438 0 -334 83 -591 332 -688 669 -20 67 -23 101 -23 243 0 140 3
176 22 240 93 321 322 557 633 654 136 43 242 52 380 36z m1230 -1805 l0 -535
-155 0 -155 0 0 509 c0 307 4 520 10 535 l10 26 145 0 145 0 0 -535z m-820
-315 l0 -220 -155 0 -155 0 0 165 0 164 43 11 c65 16 188 60 227 81 19 10 36
18 38 19 1 0 2 -99 2 -220z"/>
<path d="M1530 4553 c-217 -36 -420 -162 -545 -338 -58 -82 -90 -148 -121
-252 -23 -76 -27 -106 -27 -223 0 -117 4 -147 27 -223 47 -156 115 -266 234
-379 87 -82 181 -138 303 -180 90 -31 101 -32 249 -33 135 0 165 3 230 23 326
103 549 367 590 697 51 417 -236 814 -652 899 -70 15 -226 19 -288 9z m284
-173 c120 -30 209 -82 302 -175 44 -44 95 -105 112 -137 204 -359 38 -805
-351 -950 -105 -40 -262 -49 -372 -24 -250 59 -448 264 -499 518 -20 98 -20
159 0 256 76 371 446 605 808 512z"/>
<path d="M1634 4280 c-30 -12 -54 -49 -54 -82 0 -23 -8 -30 -47 -48 -98 -43
-153 -128 -153 -236 0 -144 113 -254 262 -254 112 0 166 -83 103 -158 -47 -56
-136 -54 -206 4 -45 37 -73 42 -107 18 -35 -24 -44 -59 -28 -99 16 -37 79 -88
132 -105 30 -10 34 -16 34 -46 0 -42 37 -84 73 -84 39 0 76 36 83 80 5 33 12
41 44 54 164 65 211 276 92 408 -51 56 -102 79 -195 87 -70 6 -82 10 -103 35
-34 38 -32 91 3 128 24 25 33 28 94 28 62 0 70 -3 109 -35 48 -40 76 -44 114
-14 20 16 26 29 26 59 0 31 -7 45 -41 78 -22 23 -60 48 -85 58 -37 14 -44 21
-44 45 0 41 -9 58 -41 74 -32 17 -36 17 -65 5z"/>
<path d="M4196 4399 l-26 -20 0 -1084 0 -1084 22 -21 c21 -19 34 -20 290 -20
252 0 269 1 287 19 11 11 23 35 26 53 3 18 5 505 3 1081 l-3 1049 -28 24 -28
24 -258 0 c-246 0 -260 -1 -285 -21z m442 -1106 l2 -963 -155 0 -155 0 0 965
0 966 153 -3 152 -3 3 -962z"/>
<path d="M3376 3969 l-26 -20 0 -870 c0 -856 0 -869 20 -889 19 -19 33 -20
290 -20 257 0 271 1 290 20 20 20 20 33 20 889 l0 870 -26 20 c-25 20 -39 21
-284 21 -245 0 -259 -1 -284 -21z m434 -889 l0 -750 -150 0 -150 0 0 750 0
750 150 0 150 0 0 -750z"/>
<path d="M1508 2099 c-77 -10 -176 -45 -239 -85 -41 -25 -169 -121 -316 -236
l-62 -49 -11 42 c-7 24 -26 57 -44 75 -53 53 -85 53 -270 4 -89 -23 -174 -51
-191 -60 -41 -25 -65 -70 -65 -120 0 -48 404 -1564 426 -1598 23 -36 75 -62
121 -62 52 0 320 71 362 96 18 10 41 38 53 63 19 40 20 49 10 100 -12 53 -11
57 10 75 41 33 157 86 226 102 104 25 182 14 592 -82 363 -85 379 -88 500 -88
106 -1 136 3 198 23 52 17 284 146 795 441 397 229 796 459 886 511 186 107
241 155 285 249 38 80 47 196 22 282 -59 203 -289 324 -493 259 -33 -10 -282
-148 -588 -324 l-529 -306 -13 49 c-30 119 -110 225 -211 278 -66 35 -1241
357 -1332 365 -30 3 -85 1 -122 -4z m747 -321 c325 -88 604 -166 621 -174 45
-21 100 -79 125 -131 48 -99 15 -245 -71 -313 -106 -84 -144 -82 -555 30 -181
50 -338 90 -348 90 -28 0 -67 -45 -67 -78 0 -62 11 -67 380 -168 288 -79 357
-94 418 -94 79 0 168 25 230 64 51 32 124 113 148 163 17 36 34 50 139 110 66
39 325 188 575 333 250 145 469 269 487 276 104 44 246 -14 294 -121 42 -92
15 -215 -61 -276 -53 -42 -1716 -999 -1785 -1027 -79 -33 -195 -40 -295 -19
-41 9 -223 50 -405 92 -206 48 -363 78 -418 82 -120 8 -231 -16 -352 -76 l-92
-47 -143 534 c-122 453 -141 535 -129 546 26 24 354 273 394 299 74 49 200 79
285 69 19 -2 301 -76 625 -164z m-1326 -805 c105 -392 191 -718 191 -726 0
-15 -239 -82 -251 -70 -9 11 -401 1474 -396 1480 3 2 60 19 128 37 124 33 124
33 131 12 4 -12 93 -341 197 -733z"/>
</g>
</svg>
