<?xml version="1.0" standalone="no"?>
<!DOCTYPE svg PUBLIC "-//W3C//DTD SVG 20010904//EN"
 "http://www.w3.org/TR/2001/REC-SVG-20010904/DTD/svg10.dtd">
<svg version="1.0" xmlns="http://www.w3.org/2000/svg"
 width="512.000000pt" height="512.000000pt" viewBox="0 0 512.000000 512.000000"
 preserveAspectRatio="xMidYMid meet">

<g transform="translate(0.000000,512.000000) scale(0.100000,-0.100000)"
fill="#000000" stroke="none">
<path d="M2343 5065 c-225 -41 -448 -164 -610 -339 -155 -166 -264 -380 -318
-621 -25 -111 -31 -378 -11 -510 28 -190 89 -402 179 -619 53 -130 51 -129
284 -124 l175 3 24 28 c13 15 24 37 24 47 0 10 -24 65 -54 122 -71 136 -140
312 -177 456 -42 161 -50 362 -21 502 81 392 385 653 730 626 346 -26 605
-317 651 -729 26 -227 -40 -497 -201 -829 -64 -133 -70 -150 -60 -173 21 -45
65 -55 237 -55 190 0 212 7 245 76 83 176 140 333 180 494 110 452 34 880
-215 1212 -218 290 -534 450 -885 447 -58 0 -137 -7 -177 -14z"/>
<path d="M1900 2737 c-56 -28 -59 -98 -6 -133 31 -20 67 -13 96 18 26 28 25
61 -2 92 -29 31 -57 39 -88 23z"/>
<path d="M3103 2740 c-49 -20 -59 -96 -17 -129 35 -28 69 -26 99 4 40 40 30
96 -22 123 -25 14 -30 14 -60 2z"/>
<path d="M1711 2554 c-28 -35 -26 -69 4 -99 40 -41 96 -30 124 22 39 75 -76
143 -128 77z"/>
<path d="M3241 2554 c-28 -35 -26 -69 4 -99 48 -49 125 -16 125 53 0 69 -87
99 -129 46z"/>
<path d="M1545 2395 c-30 -30 -32 -64 -4 -99 41 -52 129 -24 131 42 2 71 -78
107 -127 57z"/>
<path d="M3415 2395 c-30 -30 -32 -64 -4 -99 26 -33 79 -36 109 -6 30 30 27
83 -6 109 -35 28 -69 26 -99 -4z"/>
<path d="M1403 2250 c-44 -18 -57 -81 -24 -121 42 -52 131 -17 131 51 0 53
-57 91 -107 70z"/>
<path d="M3579 2231 c-16 -16 -29 -39 -29 -51 0 -28 52 -80 80 -80 28 0 80 52
80 80 0 28 -52 80 -80 80 -12 0 -35 -13 -51 -29z"/>
<path d="M2424 2175 c-181 -39 -337 -186 -384 -363 -19 -72 -14 -211 10 -284
99 -298 443 -435 721 -287 71 38 167 136 203 207 54 107 71 249 42 357 -49
184 -201 332 -383 370 -82 18 -129 18 -209 0z"/>
<path d="M1020 1983 c-57 -10 -169 -74 -221 -127 -270 -269 -123 -721 255
-787 229 -39 460 114 521 346 19 74 19 142 0 224 -39 162 -167 294 -329 337
-48 13 -171 17 -226 7z"/>
<path d="M3858 1971 c-79 -26 -139 -63 -196 -121 -262 -266 -111 -716 262
-781 139 -24 293 27 397 131 229 228 166 602 -126 746 -70 34 -83 38 -178 41
-80 2 -114 -1 -159 -16z"/>
<path d="M2174 1109 c-166 -25 -304 -97 -430 -223 -76 -77 -98 -107 -137 -186
-70 -143 -79 -185 -84 -412 l-5 -197 26 -25 25 -26 966 0 c942 0 965 0 984 19
29 29 35 78 28 251 -8 180 -27 271 -82 382 -98 197 -280 344 -493 399 -92 24
-222 30 -244 12 -8 -7 -54 -90 -103 -184 l-87 -171 -45 83 c-25 46 -64 122
-88 170 -24 47 -51 91 -59 99 -21 17 -95 21 -172 9z"/>
<path d="M735 1000 c-95 -25 -138 -44 -217 -96 -95 -63 -187 -166 -237 -266
-61 -124 -73 -178 -78 -375 l-5 -172 25 -25 26 -26 565 0 566 0 -8 33 c-4 17
-7 124 -7 237 1 183 3 214 23 285 30 106 91 229 152 310 28 37 48 70 45 75
-17 28 -245 52 -286 30 -11 -6 -53 -78 -94 -160 -41 -83 -77 -150 -80 -150 -3
0 -37 64 -76 143 -39 78 -78 150 -87 160 -21 23 -133 22 -227 -3z"/>
<path d="M3629 1010 c-45 -11 -149 -50 -149 -56 0 -3 17 -26 38 -53 55 -69
117 -193 148 -296 27 -87 28 -99 28 -327 l1 -238 588 0 588 0 24 25 c24 23 25
29 25 164 0 218 -30 337 -119 473 -120 184 -321 303 -532 316 -54 3 -93 0
-107 -7 -12 -6 -52 -74 -98 -163 l-76 -152 -78 153 c-43 84 -84 157 -91 162
-17 11 -142 10 -190 -1z"/>
</g>
</svg>
