<?xml version="1.0" standalone="no"?>
<!DOCTYPE svg PUBLIC "-//W3C//DTD SVG 20010904//EN"
 "http://www.w3.org/TR/2001/REC-SVG-20010904/DTD/svg10.dtd">
<svg version="1.0" xmlns="http://www.w3.org/2000/svg"
 width="50.000000pt" height="50.000000pt" viewBox="0 0 50.000000 50.000000"
 preserveAspectRatio="xMidYMid meet">

<g transform="translate(0.000000,50.000000) scale(0.100000,-0.100000)"
fill="#000000" stroke="none">
<path d="M0 240 l0 -210 250 0 250 0 0 210 0 210 -250 0 -250 0 0 -210z m80
160 c0 -27 -3 -30 -30 -30 -27 0 -30 3 -30 30 0 27 3 30 30 30 27 0 30 -3 30
-30z m80 0 c0 -27 -3 -30 -30 -30 -27 0 -30 3 -30 30 0 27 3 30 30 30 27 0 30
-3 30 -30z m80 0 c0 -27 -3 -30 -30 -30 -27 0 -30 3 -30 30 0 27 3 30 30 30
27 0 30 -3 30 -30z m80 0 c0 -27 -3 -30 -30 -30 -27 0 -30 3 -30 30 0 27 3 30
30 30 27 0 30 -3 30 -30z m80 0 c0 -27 -3 -30 -30 -30 -27 0 -30 3 -30 30 0
27 3 30 30 30 27 0 30 -3 30 -30z m80 0 c0 -27 -3 -30 -30 -30 -27 0 -30 3
-30 30 0 27 3 30 30 30 27 0 30 -3 30 -30z m-400 -200 l0 -150 -30 0 -30 0 0
150 0 150 30 0 30 0 0 -150z m80 0 l0 -150 -30 0 -30 0 0 150 0 150 30 0 30 0
0 -150z m80 0 l0 -150 -30 0 -30 0 0 150 0 150 30 0 30 0 0 -150z m80 0 l0
-150 -30 0 -30 0 0 150 0 150 30 0 30 0 0 -150z m80 0 l0 -150 -30 0 -30 0 0
150 0 150 30 0 30 0 0 -150z m80 0 l0 -150 -30 0 -30 0 0 150 0 150 30 0 30 0
0 -150z"/>
</g>
</svg>
